<?xml version="1.0" encoding="utf-8"?>
<!-- Generator: Adobe Illustrator 17.0.0, SVG Export Plug-In . SVG Version: 6.00 Build 0)  -->
<!DOCTYPE svg PUBLIC "-//W3C//DTD SVG 1.1//EN" "http://www.w3.org/Graphics/SVG/1.1/DTD/svg11.dtd">
<svg version="1.1" id="Layer_1" xmlns="http://www.w3.org/2000/svg" xmlns:xlink="http://www.w3.org/1999/xlink" x="0px" y="0px"
	 width="792px" height="612px" viewBox="0 0 792 612" enable-background="new 0 0 792 612" xml:space="preserve">
<g>
	<path d="M93.344,101.432c0-6.854,2.616-9.977,8.866-9.977c6.25,0,8.867,3.123,8.867,9.977v17.435c0,6.853-2.617,9.978-8.867,9.978
		c-6.25,0-8.866-3.125-8.866-9.978V101.432z M105.131,99.869c0-2.368-1.056-3.477-2.921-3.477c-1.864,0-2.921,1.108-2.921,3.477
		v20.561c0,2.366,1.057,3.477,2.921,3.477c1.865,0,2.921-1.11,2.921-3.477V99.869z"/>
	<path d="M118.992,87.726c2.817,0,5.137,2.319,5.137,5.14c0,2.82-2.32,5.14-5.137,5.14c-2.825,0-5.142-2.319-5.142-5.14
		C113.85,90.045,116.167,87.726,118.992,87.726z M118.992,95.486c1.456,0,2.617-1.161,2.617-2.621c0-1.461-1.161-2.621-2.617-2.621
		c-1.465,0-2.625,1.16-2.625,2.621C116.367,94.325,117.527,95.486,118.992,95.486z"/>
	<path d="M124.945,128.34l-3.478,6.247h-2.669l2.465-6.247H119v-5.946h5.945V128.34z"/>
	<g>
		<path d="M131.987,101.432c0-6.854,2.621-9.977,8.871-9.977c6.246,0,8.87,3.123,8.87,9.977v17.435c0,6.853-2.624,9.978-8.87,9.978
			c-6.25,0-8.871-3.125-8.871-9.978V101.432z M143.783,99.869c0-2.368-1.06-3.477-2.925-3.477c-1.864,0-2.925,1.108-2.925,3.477
			v20.561c0,2.366,1.061,3.477,2.925,3.477c1.865,0,2.925-1.11,2.925-3.477V99.869z"/>
		<path d="M157.635,87.726c2.824,0,5.141,2.319,5.141,5.14c0,2.82-2.317,5.14-5.141,5.14c-2.821,0-5.138-2.319-5.138-5.14
			C152.497,90.045,154.814,87.726,157.635,87.726z M157.635,95.486c1.464,0,2.624-1.161,2.624-2.621
			c0-1.461-1.161-2.621-2.624-2.621c-1.461,0-2.617,1.16-2.617,2.621C155.018,94.325,156.174,95.486,157.635,95.486z"/>
	</g>
	<g>
		<path d="M395.936,489.757c-4.102,0-7.434-3.34-7.434-7.445h2.049c0,2.977,2.417,5.397,5.386,5.397c2.973,0,5.394-2.42,5.394-5.397
			h2.049c0,2.977,2.424,5.397,5.401,5.397c2.973,0,5.393-2.42,5.393-5.397h2.05c0,2.977,2.42,5.397,5.393,5.397
			c2.974,0,5.395-2.42,5.395-5.397h2.048c0,4.105-3.337,7.445-7.442,7.445c-2.752,0-5.129-1.52-6.418-3.742
			c-1.288,2.223-3.665,3.742-6.417,3.742c-2.753,0-5.138-1.52-6.427-3.746C401.065,488.237,398.688,489.757,395.936,489.757z
			 M436.412,504.558c-2.753,0-5.13-1.518-6.418-3.742c-1.288,2.225-3.665,3.742-6.418,3.742c-2.753,0-5.13-1.518-6.418-3.742
			c-1.288,2.225-3.673,3.742-6.426,3.742c-4.102,0-7.435-3.34-7.435-7.443h2.05c0,2.975,2.416,5.395,5.385,5.395
			c2.978,0,5.401-2.42,5.401-5.395h2.049c0,2.975,2.421,5.395,5.394,5.395c2.973,0,5.393-2.42,5.393-5.395h2.049
			c0,2.975,2.421,5.395,5.393,5.395c2.973,0,5.394-2.42,5.394-5.395h2.049C443.854,501.218,440.518,504.558,436.412,504.558z"/>
		<rect x="466.253" y="460.524" width="0.004" height="76.4"/>
		<path d="M689.153,339.409c2.974,0,5.391-2.42,5.391-5.398h2.048c0,4.105-3.337,7.447-7.439,7.447
			c-2.752,0-5.129-1.518-6.418-3.744c-1.288,2.226-3.665,3.744-6.418,3.744c-2.749,0-5.126-1.518-6.413-3.744
			c-1.289,2.226-3.67,3.744-6.423,3.744c-4.101,0-7.438-3.342-7.438-7.447h2.049c0,2.979,2.416,5.398,5.389,5.398
			c2.978,0,5.398-2.42,5.398-5.398h2.048c0,2.979,2.417,5.398,5.39,5.398c2.973,0,5.393-2.42,5.393-5.398h2.05
			C683.761,336.989,686.18,339.409,689.153,339.409z M674.361,324.612c2.969,0,5.382-2.42,5.382-5.397h2.048
			c0,4.105-3.333,7.445-7.43,7.445c-2.753,0-5.134-1.518-6.423-3.742c-1.287,2.225-3.664,3.742-6.413,3.742
			c-2.754,0-5.133-1.518-6.422-3.744c-1.288,2.227-3.669,3.744-6.422,3.744c-4.102,0-7.438-3.34-7.438-7.445h2.049
			c0,2.977,2.417,5.397,5.39,5.397c2.977,0,5.398-2.42,5.398-5.397h2.048c0,2.977,2.421,5.397,5.398,5.397
			c2.973,0,5.39-2.42,5.39-5.397h2.049C668.964,322.192,671.385,324.612,674.361,324.612z M628.492,304.419
			c0,2.975,2.416,5.394,5.385,5.394c2.977,0,5.402-2.419,5.402-5.394h2.049c0,2.975,2.42,5.394,5.397,5.394
			c2.974,0,5.39-2.419,5.39-5.394h2.049c0,2.975,2.421,5.394,5.397,5.394c2.973,0,5.394-2.419,5.394-5.394h2.049
			c0,4.104-3.337,7.441-7.442,7.441c-2.753,0-5.134-1.516-6.421-3.74c-1.289,2.225-3.666,3.74-6.415,3.74
			c-2.752,0-5.133-1.518-6.422-3.742c-1.287,2.225-3.672,3.742-6.426,3.742c-4.101,0-7.434-3.338-7.434-7.441H628.492z"/>
		<path d="M107.376,382.233c-4.102,0-7.438-3.34-7.438-7.443h2.049c0,2.977,2.417,5.395,5.39,5.395c2.977,0,5.397-2.418,5.397-5.395
			h2.048c0,2.977,2.425,5.395,5.398,5.395c2.973,0,5.389-2.418,5.389-5.395h2.049c0,2.977,2.42,5.395,5.393,5.395
			c2.977,0,5.402-2.418,5.402-5.395h2.048c0,4.104-3.341,7.443-7.45,7.443c-2.749,0-5.129-1.516-6.418-3.742
			c-1.289,2.227-3.665,3.742-6.414,3.742c-2.749,0-5.134-1.516-6.422-3.742C112.51,380.718,110.129,382.233,107.376,382.233z
			 M122.176,397.03c-4.101,0-7.438-3.338-7.438-7.44h2.048c0,2.971,2.421,5.391,5.39,5.391c2.977,0,5.393-2.42,5.393-5.391h2.049
			c0,2.971,2.425,5.391,5.401,5.391c2.969,0,5.39-2.42,5.39-5.391h2.049c0,2.971,2.42,5.391,5.394,5.391
			c2.973,0,5.39-2.42,5.39-5.391h2.048c0,4.102-3.337,7.44-7.438,7.44c-2.749,0-5.129-1.518-6.419-3.74
			c-1.288,2.223-3.665,3.74-6.414,3.74c-2.753,0-5.137-1.518-6.425-3.742C127.306,395.513,124.929,397.03,122.176,397.03z
			 M168.038,404.392h2.049c0,4.1-3.337,7.435-7.435,7.435c-2.753,0-5.138-1.517-6.426-3.738c-1.288,2.221-3.665,3.738-6.417,3.738
			c-2.745,0-5.126-1.516-6.41-3.738c-1.292,2.223-3.673,3.738-6.426,3.738c-4.105,0-7.442-3.336-7.442-7.435h2.048
			c0,2.969,2.421,5.387,5.394,5.387c2.977,0,5.402-2.418,5.402-5.387h2.048c0,2.969,2.417,5.387,5.386,5.387
			c2.977,0,5.394-2.418,5.394-5.387h2.049c0,2.969,2.424,5.387,5.401,5.387C165.621,409.778,168.038,407.36,168.038,404.392z"/>
		<rect x="466.253" y="415.921" width="0.004" height="42.955"/>
		<rect x="466.252" y="75.081" width="0.006" height="32.767"/>
		<polygon points="324.923,141.831 189.556,141.831 189.556,143.48 323.515,143.48 		"/>
		<path d="M497.125,459.296c0-0.145,0.072-0.275,0.084-0.42H467.28v1.648h30.09C497.273,460.116,497.125,459.724,497.125,459.296z"
			/>
		<rect x="328.412" y="458.876" width="9.851" height="1.648"/>
		<path d="M715.529,75.078v66.753h-109.4v1.648h109.4v104.034h-76.546l1.648,1.648h74.898v104.036H613.231
			c0.185,0.529,0.312,1.078,0.332,1.646h101.966v104.031h-95.236l-1.649,1.648h96.885v76.4h-109.4v3.299h112.697V71.777H606.129
			v3.301H715.529z"/>
		<path d="M73.178,540.224h115.354V372.255h-1.641v86.621H76.475V354.845h80.928v-1.646H76.475V249.162h88.83v-1.648h-88.83V143.48
			h110.416v79.184l1.641-1.645V71.777H73.178V540.224z M186.891,460.524v76.4H76.475v-76.4H186.891z M186.891,75.078v66.753H76.475
			V75.078H186.891z"/>
		<polygon points="467.28,75.078 603.465,75.078 603.465,141.831 502.544,141.831 504.19,143.48 603.465,143.48 603.465,226.198 
			605.105,227.838 605.105,71.777 467.28,71.777 		"/>
		<polygon points="325.748,140.867 327.388,138.944 327.388,71.777 189.556,71.777 189.556,75.078 325.748,75.078 		"/>
		<polygon points="325.748,458.876 189.556,458.876 189.556,460.524 325.748,460.524 325.748,536.925 189.556,536.925 
			189.556,540.224 327.388,540.224 327.388,440.47 325.748,442.11 		"/>
		<polygon points="466.253,415.917 464.604,414.269 464.604,458.876 423.124,458.876 421.479,460.524 464.604,460.524 
			464.604,536.925 328.412,536.925 328.412,540.224 466.257,540.224 466.257,536.925 466.253,536.925 466.253,460.524 
			466.257,460.524 466.257,458.876 466.253,458.876 		"/>
		<polygon points="464.604,109.498 466.253,107.85 466.253,75.078 466.257,75.078 466.257,71.777 328.412,71.777 328.412,75.078 
			464.604,75.078 		"/>
		<polygon points="603.465,342.578 605.105,344.218 605.105,316.433 603.465,318.073 		"/>
		<path d="M603.465,536.925H467.28v3.299h137.825v-66.221c-0.481,0.451-1.02,0.84-1.641,1.094V536.925z"/>
		<path d="M633.877,311.86c2.754,0,5.139-1.518,6.426-3.742c1.289,2.225,3.67,3.742,6.422,3.742c2.749,0,5.126-1.516,6.415-3.74
			c1.287,2.225,3.668,3.74,6.421,3.74c4.106,0,7.442-3.338,7.442-7.441h-2.049c0,2.975-2.421,5.394-5.394,5.394
			c-2.977,0-5.397-2.419-5.397-5.394h-2.049c0,2.975-2.416,5.394-5.39,5.394c-2.977,0-5.397-2.419-5.397-5.394h-2.049
			c0,2.975-2.425,5.394-5.402,5.394c-2.969,0-5.385-2.419-5.385-5.394h-2.049C626.443,308.522,629.776,311.86,633.877,311.86z"/>
		<path d="M661.525,324.612c-2.977,0-5.398-2.42-5.398-5.397h-2.048c0,2.977-2.421,5.397-5.398,5.397c-2.973,0-5.39-2.42-5.39-5.397
			h-2.049c0,4.105,3.337,7.445,7.438,7.445c2.753,0,5.134-1.518,6.422-3.744c1.289,2.227,3.668,3.744,6.422,3.744
			c2.749,0,5.126-1.518,6.413-3.742c1.289,2.225,3.67,3.742,6.423,3.742c4.097,0,7.43-3.34,7.43-7.445h-2.048
			c0,2.977-2.413,5.397-5.382,5.397c-2.977,0-5.397-2.42-5.397-5.397h-2.049C666.915,322.192,664.498,324.612,661.525,324.612z"/>
		<path d="M676.317,339.409c-2.973,0-5.39-2.42-5.39-5.398h-2.048c0,2.979-2.421,5.398-5.398,5.398c-2.973,0-5.389-2.42-5.389-5.398
			h-2.049c0,4.105,3.337,7.447,7.438,7.447c2.753,0,5.134-1.518,6.423-3.744c1.287,2.226,3.664,3.744,6.413,3.744
			c2.753,0,5.13-1.518,6.418-3.744c1.289,2.226,3.666,3.744,6.418,3.744c4.102,0,7.439-3.342,7.439-7.447h-2.048
			c0,2.979-2.417,5.398-5.391,5.398c-2.974,0-5.393-2.42-5.393-5.398h-2.05C681.711,336.989,679.29,339.409,676.317,339.409z"/>
		<path d="M408.78,489.757c2.752,0,5.129-1.52,6.417-3.742c1.289,2.223,3.666,3.742,6.418,3.742c4.105,0,7.442-3.34,7.442-7.445
			h-2.048c0,2.977-2.421,5.397-5.395,5.397c-2.973,0-5.393-2.42-5.393-5.397h-2.05c0,2.977-2.42,5.397-5.393,5.397
			c-2.978,0-5.401-2.42-5.401-5.397h-2.049c0,2.977-2.421,5.397-5.394,5.397c-2.969,0-5.386-2.42-5.386-5.397h-2.049
			c0,4.105,3.333,7.445,7.434,7.445c2.752,0,5.129-1.52,6.417-3.746C403.643,488.237,406.027,489.757,408.78,489.757z"/>
		<path d="M441.806,497.114c0,2.975-2.421,5.395-5.394,5.395c-2.973,0-5.393-2.42-5.393-5.395h-2.049
			c0,2.975-2.421,5.395-5.393,5.395c-2.973,0-5.394-2.42-5.394-5.395h-2.049c0,2.975-2.424,5.395-5.401,5.395
			c-2.969,0-5.385-2.42-5.385-5.395h-2.05c0,4.104,3.333,7.443,7.435,7.443c2.753,0,5.138-1.518,6.426-3.742
			c1.288,2.225,3.665,3.742,6.418,3.742c2.753,0,5.13-1.518,6.418-3.742c1.288,2.225,3.665,3.742,6.418,3.742
			c4.105,0,7.442-3.34,7.442-7.443H441.806z"/>
		<path d="M120.22,382.233c2.749,0,5.125-1.516,6.414-3.742c1.288,2.227,3.669,3.742,6.418,3.742c4.109,0,7.45-3.34,7.45-7.443
			h-2.048c0,2.977-2.425,5.395-5.402,5.395c-2.973,0-5.393-2.418-5.393-5.395h-2.049c0,2.977-2.416,5.395-5.389,5.395
			c-2.974,0-5.398-2.418-5.398-5.395h-2.048c0,2.977-2.421,5.395-5.397,5.395c-2.973,0-5.39-2.418-5.39-5.395h-2.049
			c0,4.104,3.337,7.443,7.438,7.443c2.752,0,5.133-1.516,6.421-3.742C115.086,380.718,117.471,382.233,120.22,382.233z"/>
		<path d="M135.02,397.03c2.749,0,5.126-1.518,6.414-3.74c1.289,2.223,3.67,3.74,6.419,3.74c4.101,0,7.438-3.338,7.438-7.44h-2.048
			c0,2.971-2.417,5.391-5.39,5.391c-2.973,0-5.394-2.42-5.394-5.391h-2.049c0,2.971-2.421,5.391-5.39,5.391
			c-2.977,0-5.401-2.42-5.401-5.391h-2.049c0,2.971-2.416,5.391-5.393,5.391c-2.969,0-5.39-2.42-5.39-5.391h-2.048
			c0,4.102,3.337,7.44,7.438,7.44c2.753,0,5.13-1.518,6.418-3.742C129.883,395.513,132.267,397.03,135.02,397.03z"/>
		<path d="M157.251,404.392h-2.049c0,2.969-2.417,5.387-5.394,5.387c-2.969,0-5.386-2.418-5.386-5.387h-2.048
			c0,2.969-2.425,5.387-5.402,5.387c-2.973,0-5.394-2.418-5.394-5.387h-2.048c0,4.1,3.337,7.435,7.442,7.435
			c2.752,0,5.133-1.516,6.426-3.738c1.284,2.223,3.665,3.738,6.41,3.738c2.753,0,5.129-1.517,6.417-3.738
			c1.289,2.221,3.673,3.738,6.426,3.738c4.098,0,7.435-3.336,7.435-7.435h-2.049c0,2.969-2.417,5.387-5.385,5.387
			C159.675,409.778,157.251,407.36,157.251,404.392z"/>
		<path d="M315.809,367.997c-3.681-2.166-6.258-5.811-7.082-10c-1.176-6.029-3.257-11.733-6.19-16.945
			c-2.037-3.615-6.35-10.053-13.68-15.984h-11.483v0.771c9.686,5.744,14.98,13.366,17.232,17.359
			c4.454,7.916,6.558,17.25,6.086,26.998c-0.152,3.182,1.128,6.506,3.425,8.891c2.212,2.293,5.306,3.607,8.49,3.607
			c2.009,0,4.001-0.521,5.758-1.506c3.025-1.695,6.03-3.092,9.023-4.258v-7.477C323.527,370.534,319.282,370.038,315.809,367.997z"
			/>
		<path d="M276.069,325.067c0.048,0.025,0.089,0.054,0.137,0.078v-0.078H276.069z"/>
		<path d="M300.196,228.141c-5.345,0.008-10.019,3.627-11.371,8.801c-0.656,2.494-1.577,4.976-2.737,7.374
			c-3.961,8.18-12.315,18.547-29.648,21.485c-0.816,0.143-1.608,0.366-2.36,0.663c-4.061,1.606-8.047,2.612-11.408,3.385
			c-3.453,0.784-6.342,3.053-7.926,6.222c-0.92,1.829-1.933,3.667-3.017,5.462c-3.285,5.413-1.621,12.602,3.705,16.022
			c6.342,4.075,11.063,9.146,14.436,15.497c1.729,3.269,4.945,5.557,8.602,6.125c2.168,0.336,4.193,0.803,6.138,1.328v-7.096
			c-3.745-0.876-6.974-3.121-9.091-6.336c-1.304-1.984-2.761-3.885-4.333-5.649c-3.557-4-4.709-9.631-2.996-14.698
			c1.708-5.07,6.034-8.856,11.283-9.883c1.805-0.353,3.497-0.794,5.138-1.276v-7.54h11.596v-10.777h1.168v10.777h2.648
			c7.098-5.273,11.536-11.782,14.26-17.403c0.332-0.692,0.641-1.368,0.932-2.043c2.349-5.465,7.719-9.009,13.677-9.024l18.497-0.134
			v-11.429L300.196,228.141z"/>
		<path d="M499.971,361.159c2.436,2.096,4.681,4.42,6.679,6.908c1.664,2.086,4.02,3.559,6.628,4.141
			c3.994,0.893,7.76,2.16,11.185,3.764c3.793,1.791,8.374,1.393,11.795-1.027c3.448-2.43,5.347-6.553,4.949-10.76
			c-0.392-4.07-0.525-8.309-0.392-12.598c0.789-25.952,8.974-47.746,24.331-64.779c3.305-3.669,3.813-9.645,1.204-14.208
			c-0.793-1.389-1.561-2.851-2.35-4.468c-1.092-2.232-2.824-4.031-5.009-5.199c-19.441-10.451-39.463-31.835-46.857-45.655
			c-1.421-2.647-2.633-5.348-3.597-8.024c-1.189-3.301-3.754-5.88-7.043-7.076c-9.977-3.657-16.496-9.654-19.629-12.538
			c-1.257-1.158-2.768-2.04-4.369-2.548c-2.957-0.95-6.586-1.833-10.216-2.511v11.751c0.425,0.056,0.849,0.034,1.27,0.126
			c1.012,0.227,2.016,0.469,2.956,0.71c2.289,0.599,4.417,1.734,6.158,3.287c5.273,4.676,10.675,8.238,16.517,10.887
			c3.352,1.529,6.014,4.222,7.491,7.589c0.782,1.776,1.601,3.447,2.421,4.96c6.993,13.063,24.347,32.886,43.991,45.501
			c3.466,2.229,5.878,5.819,6.614,9.853c0.748,4.031-0.224,8.249-2.665,11.565c-5.817,7.898-10.406,16.606-13.743,26.054v8.205
			h-2.514c-1.908,7.164-3.176,14.697-3.749,22.6c-0.416,5.647-4.081,10.662-9.334,12.773c-1.78,0.711-3.65,1.074-5.559,1.074
			c-3.712,0-7.27-1.371-10.015-3.861c-0.403-0.359-0.816-0.725-1.231-1.086c-10.027-8.582-22.303-13.121-35.495-13.121
			c-1.061,0-2.088,0.052-3.113,0.111v6.772c1.017-0.068,2.053-0.113,3.113-0.113C481.377,350.216,491.604,353.999,499.971,361.159z"
			/>
		<path d="M378.748,220.21c3.789-4.159,9.854-5.865,15.244-4.275c4.43,1.3,9.011,2.034,13.652,2.254
			c-0.316-3.849,0.236-7.752,1.648-11.403c-6.502-0.148-12.836-1.515-18.833-4.157c-1.501-0.66-3.098-0.994-4.734-0.994
			c-3.856,0-7.482,1.887-9.682,5.05c-10.795,15.508-26.56,20.116-37.883,21.25l-9.748,0.054v11.426l10.715-0.078
			C348.21,238.411,365.571,234.69,378.748,220.21z"/>
		<path d="M463.211,183.903c-3.54-0.498-7.153,0.652-9.767,3.127c-2.584,2.457-5.129,4.586-7.657,6.564
			c2.044,1.137,3.973,2.553,5.709,4.289c0.961,0.96,1.797,1.99,2.572,3.053c0.497-0.412,0.997-0.772,1.493-1.2
			c2.941-2.543,6.829-3.737,10.695-3.505v-11.833C465.232,184.218,464.212,184.044,463.211,183.903z"/>
		<path d="M445.534,348.507l-0.487,0.178c-0.661,0.242-1.293,0.475-1.881,0.67c-1.709,0.568-3.478,0.82-5.262,0.742
			c-18.661-0.781-35.902,5.828-47.95,18.353c-2.788,2.91-6.71,4.58-10.759,4.58c-2.205,0-4.333-0.475-6.33-1.408
			c-7.73-3.615-16.141-5.449-24.995-5.449c-6.678,0-13.043,1.004-19.458,3.037v7.324c6.459-2.387,12.892-3.584,19.458-3.584
			c10.087,0,19.633,2.859,27.612,8.268c1.96,1.33,4.249,2.031,6.602,2.031c3.841,0,7.446-1.871,9.651-5.006
			c9.578-13.615,25.455-21.422,43.561-21.422c1.235,0,2.452,0.033,3.517,0.094c0.224,0.012,0.452,0.018,0.681,0.018
			c2.84,0,5.697-0.949,9.135-2.188c4.253-1.521,10.358-3.684,17.629-4.324v-6.812C457.435,344.271,450.136,346.864,445.534,348.507z
			"/>
		<path d="M499.078,333.298c3.165,1.531,7.059,1.531,10.239,0.008c3.249-1.564,5.573-4.484,6.373-8.012
			c0.016-0.077,0.045-0.148,0.062-0.227H467.28v1.258c0.265-0.004,0.513-0.027,0.78-0.027
			C479.02,326.298,489.455,328.651,499.078,333.298z"/>
		<path d="M310.095,325.067c2.329,3.09,4.038,5.793,5.042,7.576c1.777,3.152,3.341,6.498,4.646,9.946
			c1.308,3.465,4.181,6.056,7.606,7.104v-24.627H310.095z"/>
		<path d="M315.164,256.677c-4.165,0.016-8.058,2.259-10.15,5.856c-0.968,1.661-2.177,3.53-3.601,5.493h25.975V256.65
			L315.164,256.677z"/>
		<path d="M472.614,253.739h-5.334v14.287h48.963c-13.789-12.634-24.495-26.512-29.593-36.029c-0.344-0.64-0.681-1.292-1.013-1.948
			c-1.107-2.204-2.848-3.979-5.037-5.131c-3.405-1.785-6.634-3.804-9.866-6.166c-1.064-0.772-2.229-1.343-3.454-1.725v32.615h5.334
			V253.739z"/>
		<path d="M463.78,216.487c-1.688,0-3.31,0.382-4.814,1.063c-0.343,6.093-2.811,12.086-7.47,16.744
			c-5.157,5.139-9.891,10.258-14.292,15.348h29.053v-32.861C465.448,216.607,464.624,216.487,463.78,216.487z"/>
		<path d="M328.412,325.067v24.871c0.773,0.16,1.557,0.273,2.361,0.273c0.633,0,1.272-0.053,1.904-0.154
			c4.21-0.676,8.507-1.018,12.788-1.018c8.555,0,16.833,1.33,24.607,3.953c3.846,1.285,8.219,0.461,11.3-2.105
			c14.136-11.763,32.054-17.98,51.814-17.98l0.604,0.004c1.412,0,2.757-0.23,4.029-0.682c5.146-1.839,15.629-5.534,28.436-5.868
			v-1.294H328.412z"/>
		<path d="M466.257,268.026v-14.287h-32.094v-0.537c-0.072,0.085-0.148,0.172-0.22,0.258c-5.83-6.021-11.867-12.166-18.13-18.434
			c-2.536,0.244-5.098,0.408-7.698,0.408c-4.749,0-9.511-0.446-14.147-1.328c-3.589-0.681-7.366,0.372-10.075,2.812
			c-16.241,14.599-35.458,18.467-45.47,19.476c-0.375,0.04-0.816,0.072-1.239,0.099l-2.069,0.104
			c-0.472,0.023-0.916,0.04-1.392,0.04l-5.31,0.012v11.378H466.257z"/>
		<path d="M492.311,368.96c2.726,2.33,5.118,5.031,7.111,8.029c1.772,2.639,4.592,4.426,7.729,4.898
			c11.18,1.691,19.534,6.395,24.827,13.979c1.493,2.137,3.696,3.705,6.209,4.414c2.346,0.658,4.595,1.6,6.68,2.793
			c1.704,0.967,3.645,1.479,5.608,1.479h0.068c3.037,0,5.882-1.176,8.019-3.312c2.132-2.135,3.305-4.979,3.305-8.006
			c0-2.225-0.636-4.363-1.84-6.193c-5.434-10.721-7.847-22.551-7.434-36.26c0.816-26.686,9.804-47.43,27.468-63.419
			c2.264-2.047,3.585-4.854,3.717-7.906c0.132-3.003-0.968-5.989-3.016-8.197c-1.629-1.747-2.994-3.605-4.178-5.683
			c-1.4-2.442-2.525-4.853-3.53-7.094c-1.111-2.473-3.075-4.468-5.532-5.616c-18.457-8.626-38.652-30.465-45.005-42.324
			c-1.945-3.629-3.362-7.288-4.209-10.875c-0.989-4.211-4.219-7.442-8.432-8.433c-10.179-2.391-16.641-8.322-20.109-11.509
			c-1.436-1.325-2.173-1.986-2.945-2.539c-0.912-0.649-1.908-1.16-2.961-1.516c-4.433-1.687-10.606-3.218-16.581-4.212v12.174
			c3.726,0.688,7.463,1.599,10.5,2.574c1.725,0.548,3.356,1.501,4.717,2.749c3.085,2.843,9.515,8.757,19.318,12.35
			c3.545,1.29,6.312,4.073,7.594,7.633c0.952,2.636,2.143,5.293,3.541,7.9c7.334,13.703,27.192,34.908,46.481,45.276
			c2.357,1.26,4.226,3.201,5.402,5.609c0.783,1.601,1.539,3.045,2.323,4.416c2.802,4.9,2.245,11.331-1.323,15.288
			c-15.205,16.867-23.311,38.462-24.091,64.187c-0.132,4.252,0,8.451,0.392,12.482c0.425,4.539-1.621,8.986-5.342,11.607
			c-2.152,1.518-4.686,2.322-7.318,2.322c-1.884,0-3.704-0.408-5.408-1.215c-3.362-1.574-7.064-2.818-10.988-3.693
			c-2.82-0.631-5.361-2.221-7.157-4.471c-1.958-2.443-4.161-4.725-6.555-6.783c-8.194-7.012-18.213-10.719-28.973-10.719
			c-1.061,0-2.097,0.043-3.113,0.111v9.805c1.029-0.094,2.041-0.227,3.113-0.227C478.528,360.835,486.106,363.644,492.311,368.96z"
			/>
		<path d="M318.817,381.997c-1.892,1.064-4.04,1.627-6.21,1.627c-3.433,0-6.77-1.418-9.158-3.893
			c-2.469-2.568-3.845-6.148-3.685-9.58c0.463-9.572-1.6-18.734-5.966-26.496c-2.172-3.848-7.222-11.137-16.424-16.734v8.924h-1.168
			v-9.617c-0.705-0.4-1.437-0.782-2.185-1.16h-9.411v-3.602c-1.984-0.549-4.057-1.028-6.282-1.373
			c-3.941-0.611-7.41-3.08-9.278-6.605c-3.293-6.207-7.915-11.163-14.12-15.152c-5.746-3.689-7.539-11.443-3.994-17.283
			c1.068-1.774,2.073-3.591,2.977-5.397c1.708-3.419,4.826-5.865,8.555-6.71c3.321-0.767,7.266-1.761,11.271-3.345
			c0.812-0.318,1.664-0.559,2.541-0.715c16.945-2.871,25.107-12.991,28.968-20.974c1.137-2.345,2.042-4.77,2.681-7.206
			c1.456-5.582,6.498-9.484,12.267-9.492l27.192-0.146v-12.006l-37.827,0.148c-6.178,0.021-11.243,5.061-11.291,11.235
			c-0.032,3.971-0.944,7.756-2.793,11.567c-2.841,5.874-8.962,13.271-22.006,15.162c-0.968,0.146-1.908,0.41-2.789,0.782
			c-4.638,1.961-9.447,2.993-14.096,3.993l-2.417,0.538c-3.625,0.812-6.626,3.359-8.019,6.811c-2.577,6.4-6.41,12.605-11.399,18.443
			c-2.421,2.837-3.285,6.685-2.32,10.289c0.964,3.6,3.637,6.49,7.157,7.734c11.236,3.978,18.346,10.482,21.739,19.886
			c1.548,4.285,5.485,7.211,10.031,7.455c20.138,1.102,29.305,12.197,32.977,18.713c4.089,7.262,5.49,15.68,4.169,25.025
			c-0.548,3.85,0.888,7.658,3.841,10.193c3.172,2.715,6.105,5.893,8.714,9.449c2.129,2.898,5.546,4.629,9.139,4.629
			c2.369,0,4.634-0.73,6.566-2.111c3.605-2.572,7.135-4.662,10.624-6.359v-10.721C324.547,379.05,321.694,380.388,318.817,381.997z"
			/>
		<path d="M375.278,206.152c2.381-3.411,6.286-5.445,10.446-5.445c1.769,0,3.485,0.359,5.109,1.071
			c5.994,2.644,12.332,3.998,18.834,4.1c1.257-2.901,3.045-5.625,5.418-7.994c8.058-8.07,20.15-9.648,29.804-4.771
			c2.613-2.023,5.242-4.216,7.915-6.756c2.82-2.671,6.73-3.915,10.535-3.373c0.956,0.134,1.937,0.304,2.917,0.474v-12.153
			c-3.065-0.479-6.059-0.824-8.69-0.948l-0.48-0.01c-3.098,0-5.985,1.206-8.131,3.396c-9.774,9.966-21.994,20.152-38.515,20.156
			c-8.062,0-15.925-2.608-22.738-7.546c-2.761-1.997-6.33-2.642-9.619-1.753c-3.325,0.906-6.022,3.235-7.402,6.39
			c-7.747,17.741-22.45,22.86-33.418,24.031l-8.851,0.034v12.005l9.699-0.052C349.194,225.895,364.688,221.372,375.278,206.152z"/>
		<path d="M448.939,355.62c-3.809,1.371-6.958,2.369-10.179,2.223c-1.049-0.061-2.245-0.092-3.465-0.092
			c-17.798,0-33.398,7.664-42.801,21.025c-2.377,3.383-6.266,5.402-10.411,5.402c-2.542,0-5.005-0.76-7.123-2.193
			c-7.826-5.303-17.193-8.108-27.092-8.108c-6.566,0-12.996,1.223-19.458,3.65v10.605c6.594-3.053,13.032-4.564,19.458-4.564
			c11.536,0,21.871,4.861,29.101,13.688c2.601,3.176,6.802,4.709,10.827,3.959c4.061-0.756,7.39-3.662,8.69-7.586
			c4.173-12.662,16.561-26.193,38.808-26.193c0.968,0,1.964,0.033,2.884,0.08c0.609,0.033,1.129,0.041,1.621,0.041
			c4.773,0,8.499-1.336,12.811-2.883c3.646-1.303,8.339-2.918,13.645-3.539v-9.783C459.139,351.997,453.133,354.122,448.939,355.62z
			"/>
		<path d="M335.066,255.669l2.068-0.104c0.408-0.023,0.832-0.054,1.192-0.095c9.903-0.996,28.901-4.82,44.941-19.241
			c2.929-2.635,7.002-3.771,10.875-3.034c4.578,0.87,9.279,1.312,13.972,1.312c2.321,0,4.609-0.117,6.882-0.316
			c-3.961-3.997-6.316-8.967-7.121-14.137c-4.894-0.206-9.735-0.964-14.408-2.338c-4.718-1.383-10.027,0.107-13.352,3.745
			c-13.588,14.938-31.449,18.771-40.892,19.728l-10.812,0.079v14.453l5.31-0.013C334.182,255.708,334.61,255.692,335.066,255.669z"
			/>
		<path d="M318.914,342.918c-1.289-3.403-2.833-6.708-4.586-9.819c-1.048-1.867-2.856-4.74-5.393-8.031h-17.189
			c6.53,5.703,10.467,11.629,12.412,15.074c3.025,5.387,5.177,11.273,6.395,17.498c0.72,3.668,2.976,6.859,6.201,8.758
			c3.185,1.875,7.135,2.309,10.635,1.17v-16.92C323.575,349.567,320.362,346.745,318.914,342.918z"/>
		<path d="M259.829,278.667c-4.598,0.898-8.383,4.214-9.879,8.65c-1.497,4.439-0.493,9.371,2.624,12.87
			c1.633,1.832,3.146,3.807,4.498,5.866c1.768,2.688,4.441,4.572,7.538,5.407v-33.954
			C263.073,277.94,261.498,278.342,259.829,278.667z"/>
		<path d="M308.899,241.412c-5.222,0.017-9.919,3.117-11.98,7.9c-0.3,0.702-0.62,1.402-0.964,2.119
			c-2.581,5.323-6.646,11.409-12.92,16.595h17.217c1.58-2.135,2.913-4.169,3.954-5.962c2.265-3.879,6.458-6.3,10.955-6.317
			l12.228-0.025v-14.446L308.899,241.412z"/>
		<path d="M481.033,224.096c2.36,1.244,4.241,3.159,5.437,5.537c0.324,0.648,0.661,1.292,0.997,1.927
			c5.153,9.616,16.077,23.73,30.146,36.467h7.917v-10.777h1.169v10.777h11.592v43.759c3.2-7.902,7.249-15.297,12.247-22.077
			c2.137-2.906,2.989-6.598,2.337-10.127c-0.648-3.532-2.757-6.675-5.794-8.628c-19.91-12.786-37.519-32.911-44.626-46.184
			c-0.839-1.551-1.676-3.265-2.483-5.091c-1.293-2.95-3.621-5.308-6.559-6.646c-6.009-2.727-11.567-6.388-16.98-11.189
			c-1.524-1.358-3.39-2.353-5.393-2.877c-0.921-0.236-1.9-0.475-2.894-0.696c-0.283-0.062-0.575-0.042-0.864-0.086v17.892
			c1.421,0.406,2.773,1.036,3.998,1.926C474.479,220.338,477.668,222.331,481.033,224.096z"/>
		<path d="M507.101,355.159c0.429,0.373,0.848,0.742,1.265,1.115c2.409,2.182,5.521,3.381,8.77,3.381c1.673,0,3.31-0.316,4.866-0.94
			c4.601-1.85,7.81-6.238,8.175-11.184c0.566-7.848,1.824-15.332,3.692-22.465h-7.17v10.777h-1.169v-10.777h-8.817
			c-0.036,0.145-0.084,0.285-0.116,0.434c-0.86,3.803-3.37,6.954-6.879,8.641c-3.429,1.65-7.622,1.646-11.043-0.008
			c-9.494-4.584-19.794-6.908-30.613-6.908c-0.267,0-0.516,0.023-0.78,0.027V341.7c1.025-0.057,2.053-0.11,3.113-0.11
			C484.038,341.59,496.729,346.281,507.101,355.159z"/>
		<path d="M438.132,333.104c-1.372,0.488-2.824,0.734-4.309,0.734l-0.641-0.004c-19.537,0-37.25,6.145-51.215,17.766
			c-2.272,1.895-5.157,2.938-8.13,2.938c-1.381,0-2.749-0.225-4.061-0.664c-7.682-2.592-15.86-3.906-24.311-3.906
			c-4.229,0-8.482,0.338-12.64,1.006c-0.676,0.111-1.368,0.168-2.053,0.168c-0.8,0-1.584-0.104-2.361-0.254v16.393
			c6.41-1.971,12.784-2.965,19.458-2.965c9.126,0,17.801,1.893,25.788,5.625c4.953,2.322,11.191,1.158,14.957-2.777
			c12.419-12.912,30.157-19.701,49.366-18.924c1.58,0.07,3.108-0.152,4.602-0.65c0.571-0.188,1.185-0.412,1.776-0.629l0.527-0.193
			c4.742-1.691,12.244-4.364,21.371-5.023V327.29C453.605,327.624,443.226,331.284,438.132,333.104z"/>
		<path d="M456.777,201.143c-0.552,0.475-1.104,0.878-1.656,1.334c2.674,4.281,3.974,9.171,3.893,14.051
			c1.505-0.614,3.105-0.969,4.767-0.969c0.84,0,1.664,0.11,2.477,0.271v-17.745C462.836,197.848,459.383,198.893,456.777,201.143z"
			/>
		<path d="M361.374,173.935c0.376-2.114,1.64-3.963,3.473-5.071c1.812-1.103,4.065-1.378,6.098-0.753
			c7.078,2.201,14.779,5.818,19.165,8.999c5.065,3.697,10.884,5.65,16.829,5.65c14.864-0.008,25.96-11.563,34.065-20.002
			l0.845-0.885c1.225-1.271,2.973-2.192,4.562-2.412c1.46-0.2,3.205-0.301,5.185-0.301c4.559,0,9.68,0.576,14.661,1.44v-6.848
			c-6.062-1.16-12.456-1.938-18.174-1.938c-6.206,0-9.591,0.899-11.339,1.654c-0.757,0.328-1.428,0.788-1.997,1.368
			c-0.685,0.689-1.38,1.409-2.145,2.203l-0.716,0.738c-7.542,7.857-16.922,17.631-28.464,17.631c-4.33,0-8.439-1.393-12.217-4.142
			c-6.921-5.035-23.03-12.197-33.537-12.428l-0.236-0.004c-3.261,0-6.089,2.693-6.302,6.005
			c-0.993,15.252-4.473,29.612-22.719,31.748v7.379l4.089-0.01C348.843,202.31,358.033,192.769,361.374,173.935z"/>
		<path d="M313.672,406.513c-4.205,3.508-7.291,4.977-9.139,5.59c-0.76,0.25-1.545,0.375-2.337,0.375
			c-3.009,0-5.705-1.789-6.874-4.561c-2.325-5.488-7.83-15.664-18.586-22.16c-2.913-1.764-4.265-5.271-3.285-8.527
			c2.913-9.768,2.409-18.561-1.452-25.422c-2.869-5.092-10.248-13.635-27.396-13.635c-2.149,0-4.394,0.122-6.678,0.361
			c-2.045,0.238-4.141-0.432-5.718-1.826c-1.561-1.367-2.485-3.351-2.529-5.439c-0.028-1.475-0.216-2.937-0.56-4.35
			c-3.85-16.046-21.983-19.191-35.29-20.159c-1.485-0.11-2.897-0.271-4.274-0.45v8.707c0.072,0.004,0.129,0.014,0.201,0.02
			c11.771,0.853,25.631,3.241,28.256,14.189c0.784,3.275,0.248,6.803-1.589,10.483c-1.097,2.188-0.836,4.858,0.668,6.798
			c1.489,1.924,3.997,2.842,6.41,2.344l1.969-0.426c5.974-1.318,11.084-1.958,15.624-1.958c10.051,0,16.977,3.247,20.579,9.651
			c4.814,8.539,1.096,19.66-1.553,25.529c-0.725,1.609-0.752,3.467-0.072,5.102c0.68,1.629,2.021,2.914,3.673,3.533
			c13.46,5.037,19.414,17.27,21.346,22.297c0.204,0.539,0.484,1.043,0.82,1.498c3.201,4.348,7.658,6.84,12.228,6.84
			c5.017,0,10.754-2.664,17.06-7.922c4.313-3.596,8.362-6.32,12.212-8.287v-7.451C322.987,399.505,318.434,402.548,313.672,406.513z
			"/>
		<path d="M585.136,256.083c-1.393-2.457-2.653-5.346-3.87-8.139l-0.08-0.176c-0.852-1.951-2.016-4.624-3.097-6.603
			c-0.944-1.752-2.617-2.946-4.585-3.277c-12.596-2.09-35.822-24.517-42.156-36.348c-3.053-5.7-3.809-10.691-2.254-14.833
			c0.998-2.632,0.126-5.657-2.119-7.355c-2.925-2.225-9.211-5.536-14.536-5.536c-8.986,0-13.736-4.358-17.554-7.862
			c-2.86-2.639-5.806-5.355-11.447-7.524c-4.213-1.62-9.975-3.247-16.157-4.483v6.839c6.471,1.183,12.624,2.841,16.854,4.463
			c4.241,1.639,6.214,3.451,8.942,5.958c4.041,3.727,10.787,9.953,22.742,9.953c0.217,0,0.437,0.012,0.648,0.029
			c0.484,0.042,1.253,0.15,2.193,0.421c3.404,0.981,5.626,4.131,5.398,7.661c-0.321,4.858,0.991,10.068,3.899,15.483
			c6.343,11.847,28.161,34.128,44.161,39.459c1.97,0.658,3.59,2.125,4.446,4.023l0.952,2.173c1.437,3.274,2.772,6.334,4.352,9.106
			c2.608,4.549,6.846,7.99,13.732,11.159c2.4,1.11,4.049,3.425,4.307,6.044c0.264,2.618-0.897,5.215-3.033,6.773l-2.149,1.531
			c-11.972,8.486-34.254,24.278-35.489,65.046c-0.912,30.342,14.587,44.545,25.903,54.916c6.104,5.578,11.335,10.355,14.415,17.148
			c0.525,1.164,2.121,4.695,0.08,8.242c-0.128,0.227-0.279,0.457-0.443,0.682c-1.333,1.992-3.4,3.906-6.139,5.674
			c-1.203,0.777-2.601,1.188-4.036,1.188c-1.557,0-3.049-0.473-4.318-1.369c-2.983-2.105-6.4-3.174-10.15-3.174
			c-5.265,0-10.299,2.072-16.837,6.926c-1.284,0.953-2.864,1.477-4.448,1.477c-1.325,0-2.634-0.357-3.79-1.035
			c-2.597-1.531-4.014-4.447-3.608-7.43c0.844-6.295-0.076-11.514-2.825-15.957c-3.164-5.133-8.599-8.418-14.913-9.021
			c-2.677-0.256-5.014-1.936-6.102-4.387c-3.772-8.449-12.375-13.008-25.567-13.553c-2.805-0.119-5.281-1.77-6.47-4.309
			c-1.94-4.189-4.474-7.59-7.746-10.398c-4.257-3.643-9.427-5.576-14.961-5.664v8.803c2.314,0.594,4.485,1.664,6.379,3.287
			c4.285,3.678,6.149,8.184,7.41,12.105c0.86,2.656,3.312,4.443,6.105,4.443l3.157-0.033c13.851,0,20.514,3.883,22.274,12.988
			c0.575,3.01,3.226,5.195,6.293,5.195c0.333,0,0.669-0.025,0.996-0.076c0.882-0.139,1.753-0.207,2.602-0.207
			c4.478,0,8.259,1.973,10.379,5.41c4.312,6.984,0.604,17.85-3.265,25.733c-0.332,0.684-0.541,1.42-0.613,2.185
			c-0.295,2.893,0.681,7.025,2.273,9.609c1.181,1.9,3.221,3.037,5.458,3.037c0.671,0,1.34-0.107,1.992-0.322
			c2.917-0.951,6.29-3.158,10.022-6.566c12.779-11.666,17.854-13.949,22.295-13.949c3.217,0,5.813,1.291,7.934,3.947
			c1.713,2.158,4.726,2.988,7.322,1.996c2.702-1.045,11.877-5.037,16.421-12.553c2.91-4.824,3.058-9.951,0.453-15.678
			c-3.733-8.238-9.815-13.801-16.253-19.691c-11.336-10.379-24.171-22.133-23.367-48.902c1.112-36.891,20.566-50.669,32.19-58.901
			l0.483-0.346c1.222-0.87,2.373-1.692,3.401-2.489c1.769-1.372,3.605-2.593,5.482-3.741v-17.455
			C595.946,264.612,588.257,261.522,585.136,256.083z"/>
		<path d="M215.036,255.146c0.608-2.301,2.296-4.189,4.517-5.056c3.042-1.178,7.699-2.253,11.416-3.055
			c4.901-1.055,9.531-2.051,13.555-4.001c0.785-0.385,1.633-0.625,2.521-0.717c7.842-0.771,13.012-3.953,15.809-9.73
			c2.417-4.993,2.324-10.159-0.284-16.261c-0.872-2.027-0.8-4.319,0.192-6.29c0.993-1.969,2.793-3.393,4.941-3.907
			c3.709-0.886,7.63-1.576,11.328-1.998c0.276-0.03,0.552-0.038,0.824-0.038l47.534-0.122v-7.295l-51.515,0.066
			c-0.227,0-0.452,0.012-0.676,0.034c-9.043,0.95-19.314,3.501-24.975,6.199c-1.653,0.782-2.893,2.245-3.401,4.01
			c-0.508,1.754-0.24,3.653,0.744,5.205c5.658,8.951,6.81,13.192,4.745,17.451c-2.081,4.302-6.041,5.032-9.591,5.378
			c-0.796,0.068-1.844,0.19-2.333,0.296c-0.656,0.124-1.279,0.352-1.86,0.679c-3.293,1.824-7.79,2.8-12.552,3.835l-0.152,0.032
			c-11.276,2.44-20.005,4.854-21.386,11.725c-1.852,9.259-7.75,17.924-14.881,24.848v12.561
			C200.147,281.374,211.274,269.362,215.036,255.146z"/>
		<path d="M165.565,291.249c-2.585,0.668-4.45,2.811-4.754,5.458c-0.256,2.132,0.121,4.284,1.081,6.226
			c3.233,6.535,12.695,10.75,26.64,11.976v-8.745c-0.404-0.061-0.832-0.107-1.224-0.174c-3.065-0.51-5.514-2.905-6.09-5.958
			c-0.584-3.045,0.809-6.174,3.461-7.782c1.261-0.765,2.557-1.635,3.853-2.539v-12.273
			C181.034,284.433,172.339,289.48,165.565,291.249z"/>
		<path d="M615.068,275.423c-0.185-2.523-1.845-4.704-4.229-5.562l-2.905-1.01c-0.611-0.215-1.2-0.424-1.805-0.637v16.478
			c1.832-1.087,3.698-2.119,5.594-3.14C613.951,280.352,615.268,277.947,615.068,275.423z"/>
		<path d="M452.616,373.192c-4.873,1.748-9.814,3.52-16.316,3.52c-0.677,0-1.373-0.023-2.128-0.064
			c-0.765-0.039-1.585-0.055-2.373-0.055c-18.733,0-28.788,12.283-30.201,23.693c-0.772,6.371,0.721,12.826,4.205,18.176
			c1.148,1.773,1.492,3.955,0.948,5.992c-0.539,2.035-1.925,3.754-3.801,4.717c-2.669,1.381-5.45,2.94-8.271,4.633
			c-1.608,0.963-3.597,1.453-5.913,1.453c-5.402,0-9.772-2.447-11.404-3.5c-1.977-1.271-3.249-3.436-3.401-5.785
			c-1.28-19.893-13.172-33.26-29.589-33.26c-5.13,0-10.427,1.363-15.961,4.033v7.43c4.406-2.105,8.539-3.164,12.452-3.164
			c12.956,0,21.754,11.537,21.887,28.709c0.008,0.902,0.209,1.811,0.584,2.623c2.429,5.299,12.027,11.205,21.918,11.205
			c3.77,0,7.11-0.861,9.931-2.559c7.086-4.248,13.04-7.15,18.202-8.873c2.312-0.777,4.009-2.844,4.32-5.262
			c0.316-2.418-0.8-4.844-2.841-6.182c-6.47-4.238-9.923-11.508-9.007-18.967c0.961-7.76,7.41-16.82,22.427-16.82
			c0.66,0,1.337,0.021,1.988,0.053c9.212,0.525,15.709-1.838,21.407-3.883c3.996-1.428,7.771-2.775,11.707-2.775
			c0.977,0,1.933,0.094,2.869,0.266v-8.508C461.227,370.169,456.654,371.753,452.616,373.192z"/>
		<path d="M203.524,251.403c1.493-7.422,10.491-9.935,22.102-12.449l0.148-0.032c4.697-1.019,9.127-1.98,12.299-3.737
			c0.669-0.376,1.384-0.639,2.128-0.778c0.537-0.118,1.641-0.244,2.433-0.311c3.289-0.322,6.966-0.987,8.834-4.857
			c1.897-3.908,0.756-7.93-4.689-16.55c-1.124-1.779-1.433-3.952-0.852-5.96c0.58-2.021,2.004-3.693,3.896-4.592
			c5.742-2.738,16.137-5.321,25.276-6.284c0.26-0.025,0.512-0.037,0.772-0.037l51.515-0.064v-8.088
			c-1.064,0.231-2.18,0.426-3.393,0.546l-52.596,0.004c-0.228,0.026-31.329,3.114-36.639,14.092
			c-1.312,2.711-0.904,5.645,1.252,8.975c6.31,9.757,7.046,12.41,6.222,14.12c-0.705,1.445-2.477,1.612-4.533,1.809
			c-1.956,0.187-4.397,0.419-6.678,1.723c-2.521,1.442-6.558,2.314-11.231,3.325c-10.899,2.356-24.467,5.289-26.82,17.053
			c-0.604,3.035-1.812,6.065-3.417,9.015v16.833C196.266,268.467,201.764,260.21,203.524,251.403z"/>
		<path d="M315.769,413.706c-6.474,5.402-12.416,8.139-17.653,8.139c-4.87,0-9.6-2.629-12.973-7.215
			c-0.388-0.522-0.704-1.1-0.944-1.717c-1.888-4.908-7.698-16.857-20.806-21.764c-1.888-0.705-3.421-2.18-4.201-4.043
			c-0.776-1.869-0.748-3.998,0.08-5.842c2.577-5.709,6.202-16.508,1.592-24.689c-3.425-6.092-10.079-9.18-19.77-9.18
			c-4.469,0-9.518,0.635-15.428,1.938l-1.973,0.426c-2.785,0.574-5.633-0.48-7.338-2.684c-1.72-2.221-2.017-5.275-0.764-7.782
			c1.74-3.479,2.252-6.794,1.517-9.851c-2.489-10.363-15.961-12.648-27.424-13.48c-0.041-0.004-0.081-0.01-0.129-0.014v6.332
			c10.499,1.393,16.197,4.303,17.293,8.871c1.945,8.105-12.284,18.248-17.293,21.535v6.143c1.265,0.352,3.069,0.607,5.746,0.607
			c6.106,0,15.157-1.309,26.896-3.885c16.025-3.52,26.052-1.932,29.76,4.646c5.114,9.078-3.881,24.105-4.265,24.742v-0.002
			c0.008,0-1.344,2.863-0.04,5.988c1.192,2.85,4.177,5.09,8.875,6.654c14.284,4.766,19.061,19.801,19.261,20.438
			c0.024,0,6.486,11.48,18.966,11.48c6.674,0,13.924-3.223,21.55-9.58c3.946-3.289,7.643-5.793,11.083-7.566v-6.602
			C323.731,407.671,319.878,410.286,315.769,413.706z"/>
		<path d="M350.203,164.779c0.244-3.788,3.489-6.871,7.229-6.871l0.261,0.004c10.683,0.233,27.039,7.498,34.058,12.604
			c3.617,2.631,7.542,3.966,11.672,3.966c11.147,0,20.374-9.615,27.792-17.34l0.72-0.748c0.768-0.797,1.469-1.519,2.152-2.209
			c0.648-0.664,1.421-1.192,2.289-1.568c1.828-0.79,5.346-1.73,11.707-1.73c5.718,0,12.107,0.773,18.174,1.927v-8.383
			c-6.317-1.168-12.92-1.948-18.854-1.948c-8.642,0-14.811,1.601-17.84,4.628c-1.073,1.072-2.19,2.238-3.35,3.444
			c-6.822,7.105-15.312,15.945-24.268,15.947c-2.996,0-5.885-0.999-8.59-2.964c-7.818-5.685-26.036-13.907-38.539-13.907
			c-7.926,0-12.127,3.265-12.488,9.706c-1,17.998-4.533,25.622-13.917,28.104v8.215
			C345.885,193.564,349.238,179.608,350.203,164.779z"/>
		<path d="M592.609,251.911c-1.257-2.196-2.396-4.815-3.604-7.588c-3.186-7.311-6.422-14.927-11.797-14.118
			c-0.18,0.024-0.371,0.038-0.571,0.038c-7.302,0.002-31.273-19.804-38.707-33.686c-2.541-4.744-2.974-8.429-1.292-10.952
			c1.656-2.484,1.729-5.169,0.224-7.984c-3.777-7.056-16.193-12.739-23.951-12.739c-6.602,0-9.772-2.916-13.443-6.294
			c-3.205-2.947-6.835-6.288-13.725-8.94c-4.785-1.836-11.407-3.675-18.462-5.035v8.387c6.311,1.252,12.196,2.912,16.493,4.562
			c5.806,2.234,8.818,5.014,11.732,7.699c3.705,3.402,8.307,7.628,16.934,7.628c5.553,0,12.071,3.423,15.097,5.724
			c2.568,1.946,3.568,5.409,2.433,8.424c-1.461,3.879-0.725,8.613,2.195,14.064c6.259,11.686,29.125,33.819,41.492,35.872
			c2.258,0.379,4.17,1.747,5.249,3.751c1.098,2.013,2.273,4.706,3.134,6.672l0.076,0.177c1.213,2.772,2.46,5.638,3.829,8.053
			c2.92,5.097,10.314,8.105,19.162,11.245v-7.477C599.147,257.133,594.254,254.792,592.609,251.911z"/>
		<path d="M632.161,273.51c0.544-4.388-10.3-8.181-19.869-11.527c-2.109-0.738-4.182-1.467-6.163-2.201v7.451
			c0.7,0.245,1.393,0.491,2.109,0.742l2.908,1.012c2.732,0.983,4.634,3.479,4.85,6.365c0.224,2.89-1.281,5.645-3.834,7.017
			c-2.048,1.103-4.064,2.21-6.033,3.395v7.807c3.622-2.742,7.666-4.945,11.6-7.064C625.095,282.534,631.461,279.103,632.161,273.51z
			"/>
		<path d="M610.007,441.376c4.488-6.975,4.901-14.611,1.224-22.699c-1.445-3.178-3.189-5.977-5.102-8.557v35.984
			C607.558,444.642,608.898,443.095,610.007,441.376z"/>
		<path d="M600.191,289.784c-1.04,0.807-2.201,1.635-3.429,2.511l-0.488,0.347c-11.482,8.132-30.701,21.744-31.798,58.174
			c-0.788,26.344,11.876,37.941,23.052,48.178c6.526,5.965,12.671,11.592,16.489,20.004c0.451,0.994,0.796,1.967,1.088,2.928
			v-13.174c-3.645-4.611-7.842-8.471-11.965-12.24c-11.007-10.074-22.389-20.49-21.656-44.746
			c1.035-34.285,18.429-46.611,29.937-54.768c1.331-0.942,2.557-1.82,3.685-2.677v-7.91
			C603.425,287.456,601.776,288.554,600.191,289.784z"/>
		<path d="M155.998,285.047c-3.713,0.412-7.767,6.109-7.639,13.116c0.093,4.917,2.929,21.148,35.606,23.539
			c1.617,0.117,3.125,0.272,4.565,0.443v-6.305c-14.324-1.248-24.083-5.648-27.472-12.496c-1.041-2.103-1.445-4.435-1.177-6.746
			c0.356-3.029,2.489-5.484,5.446-6.25c6.854-1.789,15.688-6.994,23.203-14.179v-16.088
			C180.642,273.103,165.061,284.038,155.998,285.047z"/>
		<path d="M186.903,357.146c0.172,0.387,0.625,0.891,1.628,1.328v-5.127c-0.232,0.148-0.416,0.264-0.533,0.334
			C187.451,354.327,186.379,355.962,186.903,357.146z"/>
		<path d="M463.388,379.208c-3.777,0-7.479,1.322-11.395,2.723c-5.774,2.072-12.424,4.451-21.768,3.936
			c-0.636-0.031-1.296-0.051-1.94-0.051c-14.412,0-20.594,8.621-21.506,16.004c-0.868,7.105,2.425,14.031,8.599,18.076
			c2.332,1.531,3.608,4.311,3.249,7.078c-0.357,2.768-2.297,5.131-4.945,6.021c-5.098,1.703-10.991,4.578-18.017,8.789
			c-2.969,1.787-6.475,2.691-10.411,2.691c-10.243,0-20.214-6.189-22.763-11.746c-0.428-0.932-0.66-1.971-0.668-3.002
			c-0.129-16.621-8.551-27.789-20.958-27.789c-3.893,0-8.026,1.105-12.452,3.279v6.609c3.586-1.717,6.882-2.592,9.851-2.592
			c10.871,0,15.737,11.582,15.737,23.06c0,10.025,14.864,20.238,29.453,20.238c5.034,0,9.567-1.19,13.476-3.533
			c17.721-10.639,24.867-10.639,33.146-10.639c2.809,0,3.528-2.436,3.705-3.885c0.616-4.984-3.245-13.068-12.096-15.285
			c-7.946-1.986-11.476-9.207-10.763-14.992c0.712-5.777,5.789-11.984,18.032-11.336c10.664,0.574,18.302-2.168,24.32-4.318
			c3.673-1.312,6.841-2.445,9.714-2.445c1.161,0,2.249,0.189,3.27,0.57v-7.164C465.32,379.321,464.364,379.208,463.388,379.208z"/>
		<path d="M586.628,448.479c-0.849,0.324-1.736,0.488-2.638,0.488c-2.248,0-4.345-1.014-5.744-2.775
			c-1.934-2.422-4.291-3.598-7.207-3.598c-4.213,0-9.11,2.242-21.67,13.707c-3.83,3.496-7.314,5.773-10.36,6.766
			c-0.743,0.242-1.511,0.365-2.279,0.365c-2.557,0-4.894-1.297-6.251-3.475c-1.684-2.74-2.716-7.121-2.404-10.191
			c0.084-0.873,0.321-1.715,0.704-2.502c3.766-7.674,7.395-18.211,3.306-24.836c-1.973-3.205-5.377-4.969-9.587-4.969
			c-0.8,0-1.624,0.064-2.456,0.193c-0.381,0.061-0.761,0.088-1.142,0.088c-3.513,0-6.546-2.5-7.205-5.947
			c-1.656-8.576-8.047-12.236-21.358-12.236l-3.105,0.033c-3.253,0-6.058-2.045-7.041-5.088c-1.226-3.799-3.025-8.156-7.135-11.685
			c-1.721-1.473-3.686-2.457-5.774-3.029v7.375c0.657,0.344,1.293,0.742,1.901,1.262c3.605,3.092,4.829,6.988,5.909,10.428
			c1.465,4.652,2.521,8.012,8.646,8.012c1.189,0,2.354-0.012,3.489-0.023c1.084-0.012,2.137-0.023,3.161-0.023
			c8.378,0,15.401,0.68,16.445,9.029l0.14,1.133c0.844,6.912,1.373,9.717,6.061,9.717c1.676,0,3.846-0.371,6.63-1.131
			c1.333-0.361,2.54-0.545,3.598-0.545c2.256,0,3.9,0.811,4.889,2.414c3.241,5.248-2.172,16.975-3.908,20.445
			c-1.833,3.664-1.337,11.855,2.304,17.752c1.797,2.906,5.062,6.371,10.423,6.371c5.025,0,10.852-2.99,17.309-8.892
			c12.055-11.004,16.009-12.49,18.285-12.49c2.469,0,3.429,1.971,4.277,3.707c0.972,1.996,1.893,3.881,4.905,3.881
			c4.918,0,15.649-3.842,23.359-11.125v-14.998c-0.395,1.168-0.912,2.32-1.597,3.453C598.81,443.306,589.4,447.407,586.628,448.479z
			"/>
		<path d="M609.794,368.478v-11.611c0-0.469-0.185-0.912-0.516-1.24l-3.149-3.147v17.75h1.912
			C609.011,370.229,609.794,369.439,609.794,368.478z"/>
		<path d="M317.497,421.347c-7.974,6.643-15.625,10.01-22.742,10.01c-13.628,0-20.39-12.104-20.67-12.621
			c-0.116-0.318-4.778-14.934-18.149-19.393c-5.241-1.746-8.607-4.35-10.007-7.732c-1.633-3.94,0.068-7.422,0.14-7.568
			c0.128-0.213,8.851-14.803,4.269-22.932c-3.24-5.754-12.739-7.035-27.74-3.746c-11.872,2.607-21.054,3.93-27.296,3.93
			c-2.313,0-4.209-0.186-5.746-0.547v9.482h15.741v9.115c0,0.973,0.785,1.752,1.752,1.752h12.58v10.484
			c0,0.963,0.78,1.748,1.749,1.748h7.886v9.986c0,0.465,0.184,0.908,0.512,1.236l13.075,13.08v7.303
			c0,0.969,0.785,1.744,1.753,1.744h15.46l24.808,24.824c0.328,0.322,0.772,0.506,1.236,0.506h25.448
			c0.468,0,0.908-0.184,1.24-0.506l14.592-14.602v-22.449C324.315,416.132,321.022,418.405,317.497,421.347z"/>
		<path d="M205.041,331.583c-0.868-3.615-6.222-6.134-15.485-7.414v26.291C196.018,346.083,206.473,337.548,205.041,331.583z"/>
		<path d="M340.476,159.232c0.417-7.498,5.374-11.461,14.341-11.461c13.063,0,31.405,8.284,39.631,14.264
			c2.413,1.755,4.866,2.606,7.498,2.606c8.163,0,16.349-8.523,22.927-15.374c1.169-1.217,2.297-2.391,3.377-3.471
			c3.434-3.433,9.879-5.174,19.153-5.174c5.935,0,12.528,0.771,18.854,1.925v-27.353l-12.372,12.368h-5.466l-14.812-14.809
			c-0.491-0.496-1.252-0.648-1.903-0.376c-0.648,0.264-1.077,0.908-1.077,1.616v22.711h-11.343c-0.464,0-0.912,0.184-1.236,0.512
			l-19.277,19.27l-21.487-21.494c-0.328-0.328-0.776-0.517-1.236-0.517h-8.402c-0.969,0-1.749,0.789-1.749,1.753v5.418h-10.131
			l-11.595-11.6c-0.34-0.344-0.84-0.536-1.304-0.512c-0.484,0.023-0.944,0.243-1.256,0.616l-13.196,15.439v39.944
			C335.663,183.483,339.456,177.521,340.476,159.232z"/>
		<path d="M581.746,460.064c-4.173,0-5.562-2.844-6.574-4.92c-0.855-1.752-1.36-2.666-2.608-2.666
			c-2.648,0-8.062,3.816-17.029,12.006c-6.813,6.223-13.059,9.377-18.565,9.377c-4.921,0-9.07-2.506-12.003-7.252
			c-3.645-5.902-4.737-14.859-2.389-19.56c3.204-6.395,6.17-15.113,3.992-18.637c-0.992-1.611-3.151-1.941-6.417-1.053
			c-13.384,3.656-13.992-1.705-15.024-10.152l-0.136-1.129c-0.788-6.293-5.338-7.402-14.604-7.402c-1.016,0-2.065,0.012-3.142,0.021
			c-1.14,0.014-2.311,0.025-3.509,0.025c-7.489,0-8.91-4.523-10.415-9.311c-1.057-3.359-2.148-6.83-5.35-9.576
			c-0.228-0.193-0.46-0.342-0.692-0.504v23.936l5.366,5.369c0.324,0.328,0.772,0.512,1.236,0.512h15.589l3.189,3.193l-8.15,8.15
			c-0.332,0.328-0.521,0.771-0.521,1.236c0,0.465,0.188,0.912,0.521,1.236l9.387,9.391c0.328,0.324,0.772,0.512,1.236,0.512h16.037
			v7.402l-9.619,9.629c-0.328,0.322-0.512,0.766-0.512,1.23c0,0.465,0.184,0.912,0.512,1.242l16.541,16.531v12.123
			c0,0.969,0.779,1.75,1.748,1.75h8.399c0.964,0,1.753-0.781,1.753-1.75v-4.176h12.306v7.389c0,0.965,0.789,1.75,1.753,1.75h15.073
			c0.46,0,0.908-0.184,1.231-0.514l8.654-8.65c0.333-0.326,0.517-0.768,0.517-1.232v-15.053h9.871l2.461,2.449
			c0.323,0.328,0.769,0.514,1.237,0.514h18.275c0.465,0,0.912-0.186,1.241-0.514l2.493-2.492v-20.828
			C597.134,456.573,586.811,460.064,581.746,460.064z"/>
		<path d="M602.496,298.511c-11.212,7.945-28.148,19.95-29.156,53.311c-0.704,23.404,9.863,33.076,21.054,43.318
			c3.648,3.34,7.354,6.756,10.712,10.697v-27.211l-4.946-4.943v-3.453h4.946v-18.775l-5.463-5.459
			c-0.323-0.332-0.776-0.512-1.239-0.512h-10.352v-15.568l17.054-17.049v-16.228C604.277,297.242,603.413,297.861,602.496,298.511z"
			/>
		<path d="M645.909,291.663c0.964,0,1.744-0.788,1.744-1.753v-25.76c0-0.464-0.184-0.912-0.509-1.236l-22.79-22.794
			c-0.327-0.328-0.773-0.513-1.232-0.513h-13.497l-3.497-3.499v21.686c2.189,0.822,4.485,1.633,6.778,2.435
			c11.224,3.925,21.827,7.635,21.095,13.51c-0.817,6.546-7.9,10.361-15.394,14.4c-4.025,2.169-8.187,4.412-11.791,7.221
			c-0.216,0.168-0.465,0.344-0.688,0.514v15.967l20.182-20.178H645.909z"/>
		<path d="M588.284,218.258c-0.329-0.328-0.773-0.513-1.232-0.513h-11.884l-16.521-16.517v-4.449h14.564
			c0.965,0,1.753-0.78,1.753-1.744v-29.28c0-0.969-0.788-1.749-1.753-1.749h-21.391l-11.968-11.968
			c-0.323-0.324-0.775-0.512-1.236-0.512h-33.622l-37.534-37.535l-0.181,0.181v28.558c7.307,1.391,14.185,3.287,19.126,5.185
			c7.223,2.779,11.155,6.398,14.32,9.307c3.661,3.369,6.306,5.804,12.184,5.804c8.438,0,21.454,5.994,25.588,13.72
			c1.828,3.415,1.721,6.837-0.317,9.89c-1.584,2.379-0.119,6.231,1.385,9.047c7.523,14.043,30.933,32.705,37.071,32.705
			c0.108,0,0.212-0.009,0.308-0.021c6.731-1,10.309,7.295,13.761,15.215c1.188,2.725,2.308,5.298,3.517,7.408
			c1.308,2.29,5.662,4.395,10.884,6.411v-22.315L588.284,218.258z"/>
		<path d="M169.734,247.162c-0.328,0.328-0.512,0.771-0.512,1.24v10.48h-18.134c-0.468,0-0.912,0.184-1.24,0.512l-24.832,24.827
			c-0.328,0.328-0.512,0.776-0.512,1.24v8.154c0,0.464,0.184,0.913,0.512,1.232l3.193,3.197v16.569c0,0.464,0.188,0.912,0.512,1.24
			l16.801,16.801c0.328,0.332,0.772,0.516,1.237,0.516h14.559v35.307c0,0.961,0.781,1.752,1.749,1.752h25.463v-9.758
			c-1.712-0.565-2.821-1.42-3.329-2.582c-1.153-2.609,1.4-5.438,1.508-5.557l0.204-0.166c0.476-0.289,1.032-0.645,1.616-1.025
			v-27.127c-1.477-0.182-3.037-0.338-4.702-0.461c-34.242-2.506-37.23-20.041-37.326-25.357c-0.145-7.554,4.113-14.419,9.29-14.994
			c8.323-0.926,25.692-12.477,32.738-26.825v-28.011L169.734,247.162z"/>
		<path d="M191.156,248.944c2.589-12.957,17.417-16.164,28.245-18.506c4.521-0.976,8.43-1.82,10.703-3.12
			c2.628-1.503,5.289-1.757,7.422-1.959c1.436-0.136,2.788-0.266,3.037-0.771c0.792-1.636-4.225-9.384-6.11-12.301
			c-2.501-3.863-2.957-7.494-1.364-10.793c5.762-11.912,36.899-15.009,38.223-15.135l52.587-0.004c1.24-0.124,2.4-0.3,3.489-0.546
			v-39.018l-6.042,7.074c-0.271,0.315-0.42,0.72-0.42,1.14v19.994h-47.398v-19.994c0-0.968-0.78-1.752-1.749-1.752h-9.386
			c-0.469,0-0.913,0.184-1.241,0.512l-16.8,16.805c-0.329,0.328-0.512,0.768-0.512,1.236v9.119h-13.568
			c-0.464,0-0.912,0.188-1.24,0.52l-28.656,28.655c-0.328,0.329-0.516,0.773-0.516,1.241v13.567h-7.142
			c-0.464,0-0.904,0.185-1.24,0.513l-1.921,1.919v26.721C190.236,252.382,190.809,250.677,191.156,248.944z"/>
		<path d="M626.326,449.276c0.329-0.328,0.517-0.775,0.517-1.24v-40.523c0-0.965-0.78-1.748-1.752-1.748H617.7v-13.816
			c0-0.469-0.184-0.912-0.509-1.24l-11.062-11.057v27.424c2.573,3.178,4.914,6.699,6.79,10.832
			c3.901,8.578,3.434,17.039-1.352,24.477c-1.517,2.355-3.413,4.412-5.438,6.301v20.787L626.326,449.276z"/>
		<path d="M462.987,387.958c-2.553,0-5.582,1.082-9.087,2.336c-6.174,2.205-14.04,5.016-25.043,4.428
			c-10.963-0.602-15.484,4.74-16.093,9.707c-0.615,4.994,2.461,11.234,9.367,12.963c9.891,2.475,14.192,11.646,13.491,17.312
			c-0.42,3.402-2.544,5.514-5.549,5.514c-8.002,0-14.912,0-32.193,10.375c-4.197,2.521-9.051,3.797-14.428,3.797
			c-15.801,0-31.309-10.941-31.309-22.094c0-7.875-2.925-21.201-13.88-21.201c-2.921,0-6.218,0.951-9.851,2.803v21.98l4.87-4.869
			h8.895v34.068c0,0.973,0.784,1.754,1.752,1.754h66.948c0.472,0,0.912-0.189,1.244-0.51l14.552-14.559h12.124
			c0.468,0,0.912-0.188,1.236-0.518l18.289-18.281c0.324-0.324,0.508-0.771,0.508-1.236v-5.189c0-0.963-0.776-1.748-1.744-1.748
			h-13.852l-13.056-13.057v-1.728l33.918,0.057c0.652,0.668,1.045,1.068,1.881,1.9l0.28,0.281v-23.521
			C465.253,388.226,464.188,387.958,462.987,387.958z"/>
		<path d="M368.98,190.246c1.604-3.672,4.745-6.383,8.615-7.438c3.825-1.045,7.978-0.286,11.195,2.04
			c6.498,4.706,13.984,7.194,21.65,7.194c15.833-0.004,27.684-9.911,37.187-19.6c2.497-2.551,5.857-3.955,9.459-3.955l0.56,0.012
			c2.613,0.124,5.574,0.46,8.611,0.929v-7.885c-4.981-0.872-10.102-1.454-14.661-1.454c-1.939,0-3.641,0.098-5.058,0.292
			c-1.392,0.191-2.932,1.01-4.017,2.135l-0.84,0.88c-8.227,8.565-19.481,20.284-34.742,20.292c-6.143,0-12.151-2.015-17.373-5.825
			c-4.313-3.13-11.907-6.69-18.901-8.862c-1.772-0.553-3.75-0.309-5.338,0.655c-1.6,0.97-2.705,2.589-3.033,4.441
			c-3.429,19.306-12.88,29.089-29.745,30.787l-4.137,0.01v8.309l8.747-0.034C347.546,212.054,361.59,207.168,368.98,190.246z"/>
		<path d="M490.828,385.694c1.04,2.223,3.213,3.67,5.669,3.773c13.573,0.56,22.446,5.307,26.376,14.102
			c0.952,2.145,3.001,3.617,5.342,3.842c6.606,0.629,12.295,4.076,15.616,9.457c2.861,4.633,3.829,10.055,2.953,16.57
			c-0.353,2.611,0.889,5.164,3.161,6.504c2.224,1.305,5.142,1.143,7.213-0.387c6.71-4.98,11.909-7.107,17.39-7.107
			c3.945,0,7.542,1.125,10.688,3.34c2.141,1.514,5.117,1.58,7.314,0.164c2.628-1.697,4.608-3.523,5.882-5.426
			c0.148-0.209,0.283-0.408,0.395-0.609c1.806-3.141,0.361-6.344-0.115-7.396c-3.004-6.621-8.171-11.34-14.148-16.805
			c-11.499-10.537-27.183-24.906-26.255-55.674c1.252-41.229,23.774-57.197,35.879-65.773l2.148-1.53
			c1.865-1.36,2.882-3.633,2.649-5.928c-0.225-2.295-1.669-4.321-3.773-5.292c-7.07-3.255-11.432-6.813-14.149-11.541
			c-1.601-2.816-2.949-5.897-4.376-9.159l-0.969-2.206c-0.748-1.658-2.169-2.942-3.894-3.519
			c-16.197-5.397-38.271-27.927-44.681-39.899c-2.994-5.574-4.346-10.95-4.014-15.983c0.201-3.091-1.744-5.85-4.725-6.71
			c-0.872-0.25-1.576-0.348-2.014-0.388c-0.184-0.015-0.379-0.026-0.572-0.026c-12.318,0-19.229-6.378-23.362-10.188
			c-2.661-2.447-4.581-4.208-8.658-5.782c-4.153-1.592-10.175-3.223-16.518-4.391v7.857c6.19,1.013,12.62,2.593,17.21,4.338
			c1.191,0.401,2.349,0.996,3.413,1.753c0.855,0.613,1.632,1.31,3.072,2.643c3.393,3.112,9.623,8.83,19.326,11.109
			c4.905,1.153,8.666,4.915,9.814,9.814c0.809,3.429,2.168,6.938,4.042,10.425c6.228,11.631,26.039,33.054,44.148,41.516
			c2.86,1.339,5.15,3.661,6.445,6.54c0.985,2.197,2.085,4.558,3.445,6.933c1.112,1.952,2.397,3.697,3.925,5.339
			c2.385,2.571,3.666,6.05,3.514,9.543c-0.157,3.554-1.693,6.82-4.326,9.203c-17.271,15.632-26.06,35.944-26.859,62.099
			c-0.405,13.389,1.944,24.928,7.183,35.273c1.352,2.043,2.092,4.535,2.092,7.123c0,3.523-1.365,6.834-3.85,9.318
			c-2.484,2.486-5.798,3.855-9.33,3.855h-0.072c-2.281,0-4.536-0.594-6.526-1.719c-1.956-1.121-4.061-2-6.261-2.619
			c-2.926-0.826-5.494-2.652-7.227-5.141c-4.993-7.15-12.927-11.594-23.582-13.205c-3.654-0.547-6.931-2.627-8.999-5.701
			c-1.901-2.859-4.182-5.432-6.773-7.65c-5.866-5.023-13.024-7.68-20.711-7.68c-1.068,0-2.084,0.131-3.113,0.228v6.176
			c5.758,0.088,11.136,2.098,15.565,5.887C486.223,377.88,488.831,381.384,490.828,385.694z"/>
		<path d="M317.846,396.519c-2.245,1.605-4.89,2.455-7.647,2.455c-4.181,0-8.158-2.014-10.635-5.387
			c-2.524-3.441-5.361-6.516-8.426-9.139c-3.441-2.951-5.11-7.385-4.473-11.863c1.264-8.932-0.064-16.957-3.946-23.854
			c-3.489-6.186-12.211-16.719-31.46-17.77c-5.294-0.285-9.879-3.692-11.679-8.678c-3.193-8.849-9.931-14.986-20.61-18.766
			c-4.093-1.448-7.21-4.816-8.331-9.007c-1.125-4.195-0.116-8.672,2.701-11.974c4.857-5.688,8.586-11.722,11.091-17.934
			c1.621-4.019,5.113-6.983,9.339-7.93l2.417-0.54c4.578-0.982,9.299-1.997,13.772-3.892c1.024-0.432,2.112-0.736,3.241-0.905
			c12.243-1.775,17.965-8.667,20.605-14.135c1.729-3.559,2.577-7.084,2.608-10.775c0.057-7.185,5.954-13.05,13.14-13.076
			l37.835-0.145v-8.309l-47.534,0.124c-0.24,0-0.48,0.008-0.72,0.034c-3.661,0.416-7.538,1.101-11.215,1.979
			c-1.881,0.448-3.461,1.696-4.326,3.421c-0.872,1.725-0.932,3.731-0.168,5.506c2.72,6.368,2.809,11.777,0.264,17.03
			c-2.949,6.093-8.363,9.445-16.549,10.252c-0.78,0.079-1.521,0.29-2.209,0.626c-4.129,2-8.811,3.009-13.768,4.075
			c-3.685,0.796-8.294,1.856-11.275,3.011c-1.94,0.759-3.421,2.415-3.957,4.429c-3.889,14.693-15.485,27.064-26.376,34.769v15.219
			c1.397,0.188,2.833,0.35,4.342,0.462c13.596,0.99,32.133,4.232,36.126,20.869c0.36,1.476,0.556,3.006,0.584,4.547
			c0.04,1.828,0.848,3.565,2.216,4.761c1.385,1.223,3.186,1.815,5.002,1.601c2.321-0.242,4.598-0.366,6.779-0.366
			c17.621,0,25.235,8.839,28.204,14.108c3.989,7.086,4.518,16.127,1.532,26.145c-0.856,2.85,0.329,5.918,2.877,7.463
			c10.98,6.633,16.593,17.004,18.962,22.598c1.024,2.424,3.385,3.99,6.018,3.99c0.692,0,1.38-0.109,2.044-0.328
			c1.773-0.586,4.742-2.004,8.835-5.42c4.966-4.137,9.719-7.285,14.312-9.578v-5.498
			C324.255,392.308,321.082,394.204,317.846,396.519z"/>
		<path d="M185.159,293.045c-2.325,1.406-3.542,4.146-3.03,6.812c0.505,2.673,2.649,4.77,5.33,5.216
			c0.344,0.058,0.72,0.1,1.072,0.151v-14.37C187.395,291.631,186.267,292.375,185.159,293.045z"/>
		<path d="M453.301,366.401c-4.537,1.625-8.406,3.014-13.5,3.014c-0.524,0-1.068-0.01-1.717-0.041
			c-0.888-0.049-1.852-0.08-2.788-0.08c-21.255,0-33.074,12.871-37.047,24.916c-1.509,4.57-5.386,7.953-10.111,8.83
			c-4.669,0.891-9.575-0.906-12.607-4.605c-6.866-8.389-16.692-13.008-27.66-13.008c-6.397,0-12.836,1.596-19.458,4.781v5.502
			c5.518-2.605,10.812-3.926,15.961-3.926c16.938,0,29.197,13.713,30.517,34.127c0.136,2.057,1.248,3.953,2.977,5.066
			c1.56,1.008,5.746,3.352,10.9,3.352c2.145,0,3.973-0.447,5.433-1.322c2.838-1.703,5.638-3.271,8.326-4.66
			c1.641-0.844,2.853-2.35,3.329-4.133c0.477-1.783,0.177-3.695-0.828-5.246c-3.605-5.531-5.149-12.205-4.349-18.793
			c1.46-11.805,11.823-24.512,31.121-24.512c0.804,0,1.641,0.018,2.421,0.057c0.739,0.039,1.42,0.065,2.08,0.065
			c6.338,0,11.203-1.744,15.908-3.432c4.206-1.5,8.863-3.113,14.049-3.242v-6.115C461.235,363.616,456.754,365.169,453.301,366.401z
			"/>
		<rect x="466.257" y="253.739" width="1.023" height="14.287"/>
		<path d="M433.274,204.682c-6.073,0-11.003,4.938-11.003,11.023c0,6.081,4.93,11.011,11.003,11.011
			c6.103,0,11.031-4.93,11.031-11.011C444.306,209.619,439.377,204.682,433.274,204.682z"/>
		<path d="M506.424,304.571v-16.045c0-3.857-1.164-5.13-4.517-5.13h-2.181V309.7h2.181
			C505.26,309.7,506.424,308.429,506.424,304.571z"/>
		<polygon points="454.393,285.529 454.289,285.529 451.805,301.27 456.878,301.27 		"/>
		<rect x="526.698" y="270.358" width="9.255" height="52.375"/>
		<path d="M525.529,322.733v-52.375H277.374v52.375H525.529z M493.433,278.219h9.335c6.502,0,9.955,3.554,9.955,11.067v14.524
			c0,7.515-3.453,11.067-9.955,11.067h-9.335V278.219z M468.049,278.219h5.838l7.671,20.971h0.104v-20.971h5.681v36.659h-5.477
			l-8.026-22.903h-0.1v22.903h-5.69V278.219z M450.428,278.219h7.818l6.758,36.659h-6.098l-1.111-8.122h-6.911l-1.112,8.122h-6.089
			L450.428,278.219z M424.272,278.219h6.298v31.177h9.903v5.482h-16.201V278.219z M401.025,286.853c0-5.842,3.554-9.143,9.747-9.143
			c5.13,0,8.179,3.705,8.735,8.887l-5.994,0.656c-0.253-3.146-1.925-4.058-3.35-4.058c-2.028,0-3.148,1.32-3.148,3.602
			c0,6.245,12.799,9.242,12.799,19.193c0,6.047-4.064,9.391-9.954,9.391c-5.838,0-9.191-4.666-9.439-10.151l5.985-0.86
			c0.256,3.705,1.728,5.53,3.757,5.53c2.185,0,3.653-1.168,3.653-3.349C413.817,299.289,401.025,297.36,401.025,286.853z
			 M389.986,278.219h6.302v36.659h-6.302V278.219z M357.813,278.219h6.298v31.177h9.899v5.482h-16.197V278.219z M338.067,278.219
			h6.294v31.177h9.906v5.482h-16.2V278.219z M313.977,278.219h6.298v27.673c0,2.689,1.064,4.009,3.349,4.009
			c2.285,0,3.353-1.32,3.353-4.009v-27.673h6.294v27.416c0,6.298-3.657,9.747-9.647,9.747c-5.99,0-9.646-3.449-9.646-9.747V278.219z
			 M296.015,278.219l7.671,20.971h0.1v-20.971h5.686v36.659h-5.485l-8.023-22.903h-0.104v22.903h-5.682v-36.659H296.015z"/>
		<rect x="266.946" y="270.358" width="9.259" height="52.375"/>
		<path d="M726.544,65.022H606.129h-1.023H467.28h-1.023H328.412h-1.024H189.556h-1.024H65.456v481.955h123.076h1.024h137.832h1.024
			h137.845h1.023h137.825h1.023h120.415V65.022z M723.247,543.681H606.129h-1.023H467.28h-1.023H328.412h-1.024H189.556h-1.024
			H68.761V68.323h119.77h1.024h137.832h1.024h137.845h1.023h137.825h1.023h117.118V543.681z"/>
	</g>
</g>
</svg>
